<svg width="879" height="159" viewBox="0 0 879 159" fill="none" xmlns="http://www.w3.org/2000/svg">
<path d="M774.272 4.25586H830.681L879.002 156.455H832.81L824.721 128.144H774.272L766.183 156.455H725.525L774.272 4.25586ZM782.786 98.1298H816.206L799.603 39.5916L782.786 98.1298Z" fill="#030203"/>
<path d="M512.029 4.25586H555.88V122.397H591.003V4.25586H634.853V122.397H669.976V4.25586H713.613V156.455H512.029V4.25586Z" fill="#030203"/>
<path d="M348.371 156.457V4.25781H392.221V98.9832L445.438 4.25781H489.076V156.457H445.438V60.2416L392.221 156.457H348.371Z" fill="#030203"/>
<path d="M262.465 17.8807C283.894 18.4484 301.136 24.1248 314.192 34.91C327.389 45.5533 333.988 60.0282 333.988 78.3347V80.0376C333.988 98.3441 327.177 112.819 313.553 123.462C300.072 134.106 283.042 139.711 262.465 140.279V158.585H218.828V140.279C197.399 139.711 180.086 134.106 166.888 123.462C153.833 112.677 147.305 98.1313 147.305 79.8248V78.1218C147.305 59.8154 154.045 45.3405 167.527 34.6972C181.15 24.0539 198.251 18.4484 218.828 17.8807V0H262.465V17.8807ZM218.828 48.7463C210.739 49.314 203.998 52.0812 198.605 57.0481C193.213 62.015 190.517 68.9686 190.517 77.909V79.6119C190.517 89.1199 193.142 96.3574 198.393 101.324C203.643 106.149 210.455 108.704 218.828 108.987V48.7463ZM262.465 109.413C270.696 109.129 277.437 106.504 282.688 101.537C288.08 96.4283 290.776 89.3328 290.776 80.2505V78.5476C290.776 60.2411 281.339 50.4493 262.465 49.1721V109.413Z" fill="#030203"/>
<path d="M49.3791 4.25586H105.789L154.109 156.455H107.917L99.8284 128.144H49.3791L41.2902 156.455H0.632812L49.3791 4.25586ZM57.8938 98.1298H91.3138L74.7102 39.5916L57.8938 98.1298Z" fill="#030203"/>
</svg>
