<svg width="157" height="116" viewBox="0 0 157 116" fill="none" xmlns="http://www.w3.org/2000/svg">
<g clip-path="url(#clip0_57_55043)">
<path d="M78.7799 0.341317L78.4972 0.202637L78.2145 0.341317L0 39.3565V116H9.68812V59.5448C9.80402 57.023 10.7539 49.3813 17.7479 41.5868C25.4062 33.0563 42.159 22.5136 78.4972 20.7249C114.835 22.5136 131.591 33.0563 139.246 41.5868C140.378 42.8424 141.417 44.1779 142.356 45.5831C142.376 45.6057 142.416 45.6623 142.432 45.6878C142.634 45.962 142.816 46.2505 142.975 46.5511C146.614 52.4437 147.216 57.5891 147.309 59.5703V116H157V39.3565L78.7799 0.341317ZM0.565399 41.6236C0.7435 40.3358 1.95911 40.7037 2.5443 40.9528L6.29006 42.7925C6.70846 43.1038 8.24634 44.3633 7.42086 45.5661L2.17115 50.6889C0.822671 51.538 0.571059 49.9898 0.571059 49.9898L0.565399 41.6236ZM0.565399 54.8352C0.684133 53.938 1.19865 54.255 1.47287 54.4956L7.99192 60.9033C8.48664 61.5118 7.77708 61.5996 7.57636 61.6137H0.565399V54.8352ZM0.565399 88.5154V82.5463C0.590842 82.3482 0.565406 80.7972 1.87996 81.8048L7.99475 87.8163C8.50644 88.4474 7.71205 88.5154 7.55374 88.5239L0.565399 88.5154ZM1.03469 89.0814L0.992278 89.1012L0.972487 89.0814H1.03469ZM7.21733 86.2512L2.52733 81.6407C1.74143 80.5425 2.34642 80.2086 2.86093 80.1152H7.81948C8.80327 80.2454 9.06053 81.2161 9.11425 81.5076V86.4691C8.90222 87.6295 7.21733 86.2682 7.21733 86.2682V86.2512ZM7.21733 77.2877L2.51037 72.6602C1.63683 71.4121 2.56975 71.1828 3.08992 71.1432H7.77424C8.78913 71.2536 9.05205 72.247 9.10859 72.5414V77.4943C8.90787 78.6264 7.32475 77.3755 7.23429 77.2934L7.21733 77.2877ZM7.24278 68.3441L2.52733 63.7081C1.67924 62.5336 2.42557 62.2449 2.95987 62.1769H7.81099C8.79478 62.31 9.05204 63.2779 9.10576 63.5694V68.5365C8.93048 69.6007 7.47741 68.5281 7.24842 68.3497L7.24278 68.3441ZM0.559757 64.6393C0.559757 64.6393 0.720888 62.8222 2.00152 63.9855L7.97496 69.8526C8.4612 70.4187 7.89297 70.5545 7.63572 70.58H0.568229L0.559757 64.6393ZM1.01207 71.1489L0.980976 71.163V71.1489H1.01207ZM0.559757 73.6282C0.559757 73.6282 0.735028 71.647 2.16549 73.1301L7.98345 78.8472C8.47817 79.4557 7.76859 79.5463 7.56787 79.5604H0.556927L0.559757 73.6282ZM0.559757 91.5749C0.559757 91.5749 0.735028 89.5937 2.16549 91.0768L7.81948 96.6382C8.47534 97.2779 8.00323 97.4562 7.70639 97.4873H0.565399L0.559757 91.5749ZM0.992278 98.059H0.975317H0.992278ZM0.559757 100.53C0.559757 100.53 0.735028 98.5487 2.16549 100.032L7.98909 105.757C8.50078 106.388 7.70639 106.456 7.54808 106.465H2.24463C1.8554 106.506 1.465 106.398 1.15299 106.161C0.840975 105.925 0.630833 105.578 0.565399 105.191L0.559757 100.53ZM6.90918 115.434H0.565399V108.862C0.746327 107.784 1.75839 108.613 2.14004 108.97L2.28422 109.111L7.23429 113.965L7.59049 114.316C8.36509 115.247 6.9318 115.42 6.91484 115.434H6.90918ZM9.11706 113.266C8.95592 114.817 7.5707 113.521 7.5707 113.521L1.5803 107.614C1.42199 107.424 1.27781 107.119 1.93084 107.031H7.82795C8.88242 107.178 9.09728 108.293 9.12272 108.48L9.11706 113.266ZM9.11706 104.354C8.95592 105.616 7.21167 104.198 7.21167 104.198L2.53016 99.5959C1.68207 98.4015 2.45666 98.1213 2.99097 98.059H7.40673C7.48583 98.0549 7.5651 98.0549 7.64421 98.059H7.6866C8.86263 98.1241 9.1001 99.3327 9.11706 99.5251V104.354ZM9.11706 95.4014C8.97571 96.4996 7.64138 95.5712 7.29366 95.308L2.48777 90.59C1.35697 88.9541 3.38675 89.0928 3.38675 89.0928H7.82795C8.80326 89.2286 9.06053 90.1937 9.11425 90.4853V92.9306L9.11706 95.4014ZM9.11706 59.5023C8.95875 60.725 7.32475 59.4401 7.21733 59.3523L1.87149 54.0994C1.63689 53.856 1.48714 53.5433 1.44461 53.2078H9.11706V59.5023ZM9.11706 52.6418H1.48417C1.62249 52.1882 1.86782 51.7747 2.19941 51.4361L2.40578 51.2351L7.79969 45.9708C8.8796 45.0001 9.0775 45.9256 9.11425 46.2539L9.11706 52.6418ZM9.39976 43.6925L3.15211 40.6245C1.21844 39.4414 2.95987 38.5159 2.95987 38.5159L11.8423 34.0837C13.513 33.6507 13.5668 35.8102 13.5668 35.8102V41.2075L9.39976 43.6925ZM17.3153 41.2273C12.5095 46.5793 10.5306 51.8719 9.68246 55.5428V44.1765L21.7566 36.9706C20.1725 38.2779 18.6871 39.7007 17.3125 41.2273H17.3153ZM23.5771 35.1989L14.1293 40.8594V34.8592C14.2735 34.2592 14.7937 33.2856 16.6538 33.2771L22.5283 33.7667C24.7617 33.9083 23.5743 35.1989 23.5743 35.1989H23.5771ZM26.2289 29.4817V31.412C25.9462 32.9403 24.6514 33.2828 23.7439 33.3082L17.4878 32.7761C15.8792 32.578 16.4588 31.8705 16.668 31.6639L24.6797 27.6817C26.2798 27.3194 26.226 29.4817 26.226 29.4817H26.2289ZM36.1771 28.4402L28.2049 32.4422C27.2438 32.8158 26.9102 32.2978 26.7914 31.811V28.6977C26.9441 28.0439 27.5293 26.8609 29.7852 26.9996L35.3007 27.4411H35.4307L35.8378 27.4722C37.4831 27.6817 36.1742 28.4402 36.1742 28.4402H36.1771ZM39.2443 24.9476V24.9618C39.1002 26.793 37.0478 26.9628 36.112 26.943L29.9746 26.4533C28.4622 26.2552 29.0191 25.6326 29.3442 25.3609L37.4209 21.3334C39.1935 20.9004 39.2443 23.0627 39.2443 23.0627V24.9476ZM49.7042 24.0476C49.6025 24.0844 41.3505 26.4732 41.3505 26.4732C40.4854 26.81 40.084 26.2977 39.9002 25.7429C39.8275 25.5123 39.7922 25.2715 39.7956 25.0297V22.2362C39.937 21.6108 40.4515 20.6994 42.1957 21.073L49.2915 23.0712C51.1206 23.6259 49.7155 24.0476 49.7155 24.0476H49.7042ZM52.2485 21.0872C52.1185 22.7655 50.8689 22.8334 50.1622 22.7202L42.4445 20.5466C41.0112 20.0258 41.5484 19.3635 41.9244 19.0579L50.4873 14.787C52.2627 14.3455 52.2485 16.5191 52.2485 16.5191V21.0872ZM62.8356 21.5796L55.2989 22.8221C53.8854 23.0315 53.2493 22.2928 52.9722 21.673C52.8648 21.4228 52.8109 21.1529 52.8139 20.8805V15.9078C52.9411 15.3927 53.3991 14.6002 54.9002 15.2681L63.025 20.2975C64.512 21.1494 62.8526 21.5796 62.8526 21.5796H62.8356ZM65.2697 18.8654C65.2866 20.4277 64.4611 20.4022 63.9127 20.1815L55.0727 14.7077C53.8514 13.6605 54.8296 12.7266 55.1858 12.4435L63.3558 8.36795C65.2357 7.81888 65.2697 10.0208 65.2697 10.0208V18.8654ZM76.7501 20.2522L76.1508 20.2862H76.1084C73.5773 20.439 71.1093 20.6381 68.7045 20.8834L68.8119 20.8664L68.4331 20.9117L68.1758 20.9372C66.4626 21.0164 65.9708 19.9551 65.8351 19.2786V9.41798C65.9453 8.94249 66.3185 8.32267 67.3984 9.34722L77.2674 19.5899L77.2929 19.6211C77.5558 20.0173 77.1515 20.1928 76.7784 20.2522H76.7501ZM78.1975 3.21121V18.8795C78.1975 19.4145 77.9148 19.3635 77.7169 19.2418L67.52 8.65664C66.6323 7.35754 67.6585 6.35563 68.0854 6.01317L76.5663 1.78759C77.1006 1.6206 78.353 1.40267 78.2145 3.21121H78.1975ZM116.758 19.9268L114.943 19.0211L116.758 19.9268ZM78.7629 19.1003V2.56308C78.8788 1.99702 80.3404 1.76212 80.3404 1.76212L88.3351 5.77543C88.3351 5.77543 90.6504 7.23584 89.1182 8.99344L79.3227 19.1909C79.006 19.4258 78.8449 19.2588 78.7799 19.1003H78.7629ZM91.1282 18.7805C91.1282 18.7805 91.1282 20.8636 88.9486 20.957C86.0368 20.6513 83.0307 20.4107 79.9305 20.2352C79.4471 20.1758 79.4725 19.9126 79.5319 19.7569L89.8051 9.09532C91.0773 8.11605 91.1282 9.74629 91.1282 9.74629V18.7805ZM91.6936 19.5192V9.2425C91.8208 8.63966 92.2279 7.90661 93.5057 8.3538L101.303 12.2426C101.396 12.2895 101.485 12.3454 101.568 12.4096C101.984 12.7407 103.064 13.8021 101.602 14.8861L93.5029 19.9013C93.5029 19.9013 92.0102 20.9966 91.7105 19.5192H91.6936ZM104.132 20.7787C104.132 20.7787 103.867 23.1165 101.56 22.8164C99.1229 22.3429 96.6013 21.9277 93.9948 21.5711C93.7573 21.5032 92.7876 21.1862 93.4294 20.5975L102.066 15.2511C104.045 14.4757 104.124 16.3833 104.124 16.3833L104.132 20.7787ZM104.698 21.1834V16.137C104.825 15.4691 105.243 14.4389 106.677 14.9257L114.677 18.888C114.677 18.888 116.495 19.9777 114.064 20.6853L107.381 22.5674L107.163 22.6297C106.583 22.774 104.952 22.9919 104.729 21.1721L104.698 21.1834ZM117.159 24.7495C117.159 25.0071 117.091 27.059 115.562 26.4647L115.912 26.5977C113.17 25.6543 110.268 24.8052 107.205 24.0504H107.231C107.231 24.0504 105.817 23.6202 107.482 23.1165L107.703 23.0542L114.816 21.0532C117.292 20.5777 117.153 22.7514 117.153 22.7514L117.159 24.7495ZM117.725 24.9561V22.9749C117.758 22.5391 118.007 20.8183 119.785 21.4409L119.681 21.39L127.314 25.2024C127.512 25.3467 128.662 26.2496 126.692 26.4647L126.304 26.4958L120.998 26.9203C120.17 26.9656 117.905 26.8864 117.77 24.9561H117.725ZM129.864 33.1328L129.527 32.929L129.867 33.1299L129.864 33.1328ZM130.172 31.5308C130.124 32.0516 129.889 32.8724 128.758 32.4563C126.204 30.9461 123.549 29.6146 120.812 28.4713L120.879 28.4968C120.879 28.4968 119.548 27.7298 120.95 27.4977L127.334 26.9854C129.838 26.96 130.144 28.6836 130.18 29.0204L130.172 31.5308ZM130.737 31.4601V28.9666C130.782 28.3241 131.043 27.2968 132.284 27.676L140.199 31.6384C140.259 31.6893 141.22 32.5356 139.577 32.7875L133.18 33.3196C132.318 33.2884 131.057 32.9714 130.774 31.4601H130.737ZM134.393 33.7837L140.202 33.2969C142.308 33.2743 142.746 34.4658 142.837 35.0404V40.8707L131.5 34.1064L133.344 35.2045C133.344 35.2045 132.187 33.9083 134.424 33.7837H134.393ZM147.275 46.2369V55.5541C146.447 51.8748 144.448 46.5878 139.642 41.2358C138.266 39.7122 136.779 38.2931 135.193 36.9904L147.267 44.1963L147.275 46.2369ZM143.402 41.216V35.963C143.402 35.963 143.425 33.5573 145.214 34.1262L154.085 38.5527C154.47 38.8357 155.38 39.6707 153.772 40.6471L147.572 43.6925L143.402 41.216ZM155.513 52.6503H147.841V47.7256C147.841 47.519 147.866 44.7906 148.971 45.7897L155.092 51.7644C155.333 52.0002 155.492 52.3081 155.544 52.6418L155.513 52.6503ZM154.546 54.6315L149.788 59.3099C149.788 59.3099 147.973 60.8099 147.835 59.3467V53.2078H155.468C155.332 53.663 155.089 54.0786 154.758 54.4192L154.549 54.6258L154.546 54.6315ZM147.849 68.3667V63.4987C147.894 63.2496 148.132 62.2901 149.158 62.1826H153.763C154.238 62.242 155.244 62.4939 154.555 63.5977L149.777 68.296L149.794 68.2648C149.794 68.2648 148.07 69.7083 147.88 68.3639L147.849 68.3667ZM149.545 80.1236H153.673C154.102 80.1633 155.295 80.384 154.521 81.5812L149.797 86.2229V86.2087C149.797 86.2087 148.044 87.655 147.852 86.3134V81.4397C147.9 81.1822 148.135 80.1972 149.214 80.1208H149.54L149.545 80.1236ZM154.563 90.5135L149.805 95.1891L149.825 95.158C149.825 95.158 148.01 96.6552 147.872 95.1948V92.9164V90.4003C147.917 90.1484 148.154 89.2003 149.169 89.0899H153.543C153.543 89.0899 155.445 89.1182 154.563 90.5135ZM154.589 99.4572L149.825 104.141C149.825 104.141 148.01 105.638 147.872 104.178V99.426C147.872 99.426 148.005 98.226 149.116 98.059H154.354C154.798 98.2288 155.179 98.6081 154.586 99.4742L154.589 99.4572ZM147.88 77.3358V72.4565C147.925 72.2131 148.163 71.2904 149.124 71.1489H153.602C153.902 71.1659 155.372 71.313 154.552 72.5951L149.819 77.2481C149.715 77.3415 148.064 78.6434 147.88 77.3472V77.3358ZM147.88 113.28V108.409C147.88 108.409 148.021 107.127 149.24 107.031H153.613C153.613 107.031 155.592 107.031 154.439 108.596L149.35 113.603C149.169 113.764 148.019 114.831 147.872 113.292L147.88 113.28ZM156.44 115.423H149.955C149.955 115.423 148.609 115.278 149.364 114.364L154.835 108.987C156.285 107.724 156.44 109.389 156.44 109.389V115.423ZM156.44 106.454H149.401C149.096 106.439 148.468 106.321 149.254 105.503L154.928 99.927C156.293 98.676 156.44 100.303 156.44 100.303V106.454ZM156.44 97.4817H149.548C149.548 97.4817 148.349 97.5637 149.164 96.6326L154.917 90.972C156.155 89.956 156.401 91.1079 156.44 91.3655V97.4817ZM156.432 88.5324H149.54C149.54 88.5324 148.29 88.6173 149.206 87.6295L155.018 81.9124C156.149 81.0095 156.392 82.1501 156.432 82.4048V88.5324ZM156.432 79.5633H149.364C149.05 79.5434 148.474 79.4104 149.24 78.6151L154.979 72.9716C156.143 72.0149 156.392 73.1782 156.426 73.4357L156.432 79.5633ZM156.432 70.5913H149.54C149.54 70.5913 148.332 70.6734 149.161 69.7422L154.959 64.0449C156.028 63.1336 156.347 63.9657 156.432 64.3477V70.5913ZM156.432 61.6222H149.54C149.54 61.6222 148.282 61.7099 149.212 60.7137L154.832 55.1862C156.177 54.3569 156.432 55.8909 156.432 55.8909V61.6222ZM156.432 51.0398C156.316 51.9059 155.83 51.637 155.547 51.4021L149.491 45.4869C148.429 44.2614 149.37 43.5057 149.491 43.3981L154.538 40.9188C155.14 40.6698 156.234 40.4009 156.418 41.5443L156.432 51.0398Z" fill="#DDDDDD"/>
<path fill-rule="evenodd" clip-rule="evenodd" d="M143.237 45.7771L143.577 46.4854L32.4226 99.9987V115.797H31.6376V99.5046L143.237 45.7771Z" fill="#DDDDDD"/>
<path fill-rule="evenodd" clip-rule="evenodd" d="M50.8969 38.3745L102.617 65.7992V115.594H101.832V66.2723L50.8977 39.2642L9.49266 61.3051L9.12412 60.6112L50.8969 38.3745Z" fill="#DDDDDD"/>
<path fill-rule="evenodd" clip-rule="evenodd" d="M24.3155 79.6025L47.6379 92.0003V115.391H46.8529V92.4729L24.3261 80.4979L9.70328 88.7203L9.31887 88.0351L24.3155 79.6025Z" fill="#DDDDDD"/>
<path fill-rule="evenodd" clip-rule="evenodd" d="M17.812 91.9892L32.2096 99.4022L31.8506 100.101L17.8459 92.8904L9.10783 98.2586L8.69727 97.5888L17.812 91.9892Z" fill="#DDDDDD"/>
</g>
<defs>
<clipPath id="clip0_57_55043">
<rect width="157" height="116" fill="white"/>
</clipPath>
</defs>
</svg>
