<svg width="917" height="83" viewBox="0 0 917 83" fill="none" xmlns="http://www.w3.org/2000/svg">
<path d="M354.524 82.3433L354.502 0.632812H405.236L405.279 15.6469L372.089 15.6687V82.3433H354.524Z" fill="white"/>
<path d="M33.1335 82.3433H50.808V0.632812H0.0742188L0.0960257 82.3433H17.6615V15.6687L33.2316 15.6469L33.1335 82.3433Z" fill="white"/>
<path d="M889.371 82.343V37.0936H855.713V0.621582H838.049V82.3975H889.371V82.343ZM871.708 52.1513V67.2417H855.713V52.1513H871.708Z" fill="white"/>
<path d="M917 67.2417V0.621582H899.336V82.3975H917V67.2417Z" fill="white"/>
<path d="M275.9 41.7388L286.912 0.632812H268.714L259.773 33.9974H253.199V0.632812H235.611V82.3433H253.199V49.0332H259.653L268.583 82.3433H286.781L275.9 41.7388Z" fill="white"/>
<path d="M511.871 0.621582H483.522L472.902 82.3975H489.639L490.838 70.8943H504.588L505.776 82.3757H522.491L511.871 0.621582ZM492.976 55.8039L496.825 15.374H498.874L502.527 55.8039H492.976Z" fill="white"/>
<path d="M157.401 0.621582H129.052L118.432 82.3975H135.168L136.357 70.8943H150.117L151.295 82.3757H168.021L157.401 0.621582ZM138.505 55.8039L142.343 15.374H144.404L148.045 55.8039H138.505Z" fill="white"/>
<path d="M651.207 0.632812H633.118H632.987L630.894 8.49419L624.079 33.9429V33.9974H617.232L608.291 0.632812H590.082L601.094 41.7279L604.387 51.7046H619.38L611.169 82.3433H629.247L629.291 82.7031L631.472 74.5146L638.297 49.0332L638.286 48.9133L640.325 41.2482L651.207 0.632812Z" fill="white"/>
<path d="M770.469 0.447266L759.435 41.4988L770.469 82.2777L718.787 82.3104V67.2418H748.314L741.423 41.357L748.205 15.494L718.787 15.5049V0.447266H770.469Z" fill="white"/>
</svg>
