<svg width="480" height="329" viewBox="0 0 480 329" fill="none" xmlns="http://www.w3.org/2000/svg">
<rect width="480" height="329" fill="white"/>
<path d="M488.016 0.503313L486.99 0L485.963 0.503313L202 142.102V420.265H237.173V215.371C237.594 206.219 241.043 178.485 266.435 150.196C294.239 119.236 355.061 80.9735 486.99 74.4816C618.918 80.9735 679.751 119.236 707.544 150.196C711.651 154.753 715.424 159.6 718.834 164.7C718.906 164.782 719.05 164.987 719.112 165.08C719.844 166.075 720.502 167.122 721.082 168.213V168.213C734.292 189.599 736.478 208.273 736.816 215.464V420.265H772V142.102L488.016 0.503313ZM204.053 150.329C204.699 145.656 209.113 146.991 211.237 147.895L224.837 154.572C226.356 155.702 231.939 160.273 228.942 164.638L209.883 183.23C204.987 186.312 204.073 180.693 204.073 180.693L204.053 150.329ZM204.053 198.279C204.484 195.022 206.352 196.173 207.347 197.046L231.015 220.302C232.811 222.51 230.235 222.829 229.507 222.88H204.053V198.279ZM204.053 320.514V298.851C204.145 298.132 204.053 292.503 208.825 296.16L231.026 317.977C232.883 320.268 229.999 320.514 229.424 320.545L204.053 320.514ZM205.757 322.569L205.603 322.641L205.531 322.569H205.757ZM228.203 312.297L211.176 295.564C208.322 291.578 210.519 290.366 212.387 290.027H230.389C233.961 290.5 234.895 294.023 235.09 295.081V313.088C234.32 317.299 228.203 312.358 228.203 312.358V312.297ZM228.203 279.766L211.114 262.971C207.943 258.441 211.33 257.609 213.218 257.465H230.225C233.91 257.866 234.864 261.471 235.069 262.54V280.516C234.341 284.624 228.593 280.084 228.265 279.786L228.203 279.766ZM228.295 247.306L211.176 230.481C208.097 226.218 210.806 225.17 212.746 224.924H230.358C233.93 225.407 234.864 228.92 235.059 229.978V248.005C234.423 251.867 229.147 247.974 228.316 247.327L228.295 247.306ZM204.032 233.861C204.032 233.861 204.617 227.266 209.267 231.488L230.954 252.781C232.719 254.836 230.656 255.329 229.722 255.421H204.063L204.032 233.861ZM205.674 257.486L205.562 257.537V257.486H205.674ZM204.032 266.484C204.032 266.484 204.669 259.294 209.862 264.676L230.984 285.426C232.781 287.634 230.204 287.963 229.476 288.014H204.022L204.032 266.484ZM204.032 331.618C204.032 331.618 204.669 324.428 209.862 329.81L230.389 349.995C232.77 352.316 231.056 352.963 229.979 353.076H204.053L204.032 331.618ZM205.603 355.151H205.541H205.603ZM204.032 364.119C204.032 364.119 204.669 356.928 209.862 362.311L231.005 383.091C232.863 385.381 229.979 385.628 229.404 385.659H210.149C208.736 385.81 207.319 385.415 206.186 384.556C205.053 383.698 204.29 382.439 204.053 381.036L204.032 364.119ZM227.084 418.21H204.053V394.359C204.71 390.446 208.384 393.455 209.77 394.749L210.293 395.263L228.265 412.879L229.558 414.153C232.37 417.532 227.166 418.159 227.105 418.21H227.084ZM235.1 410.342C234.515 415.971 229.486 411.267 229.486 411.267L207.737 389.829C207.163 389.141 206.639 388.032 209.01 387.713H230.42C234.248 388.247 235.028 392.294 235.121 392.972L235.1 410.342ZM235.1 377.996C234.515 382.577 228.182 377.431 228.182 377.431L211.186 360.729C208.107 356.394 210.919 355.377 212.859 355.151H228.891C229.178 355.136 229.466 355.136 229.753 355.151H229.907C234.176 355.387 235.039 359.774 235.1 360.472V377.996ZM235.1 345.506C234.587 349.491 229.743 346.122 228.48 345.167L211.032 328.044C206.927 322.107 214.296 322.61 214.296 322.61H230.42C233.961 323.103 234.895 326.606 235.09 327.664V336.538L235.1 345.506ZM235.1 215.217C234.525 219.654 228.593 214.991 228.203 214.673L208.795 195.608C207.943 194.725 207.399 193.59 207.245 192.372H235.1V215.217ZM235.1 190.318H207.388C207.891 188.672 208.781 187.171 209.985 185.942L210.734 185.213L230.317 166.107C234.238 162.584 234.957 165.943 235.09 167.134L235.1 190.318ZM236.127 157.838L213.444 146.703C206.424 142.41 212.746 139.051 212.746 139.051L244.994 122.965C251.06 121.393 251.255 129.231 251.255 129.231V148.819L236.127 157.838ZM264.865 148.891C247.416 168.315 240.232 187.524 237.153 200.847V159.595L280.989 133.442C275.238 138.187 269.845 143.351 264.854 148.891H264.865ZM287.599 127.012L253.298 147.556V125.779C253.821 123.602 255.71 120.068 262.463 120.038L283.791 121.815C291.899 122.328 287.588 127.012 287.588 127.012H287.599ZM297.226 106.263V113.268C296.199 118.815 291.499 120.058 288.204 120.151L265.491 118.219C259.651 117.5 261.755 114.932 262.514 114.183L291.601 99.73C297.411 98.4151 297.216 106.263 297.216 106.263H297.226ZM333.343 102.483L304.4 117.007C300.91 118.363 299.699 116.483 299.268 114.717V103.418C299.823 101.045 301.947 96.7511 310.137 97.2544L330.162 98.8568H330.634L332.112 98.9698C338.085 99.73 333.333 102.483 333.333 102.483H333.343ZM344.479 89.8073V89.8587C343.956 96.5046 336.505 97.1209 333.107 97.049L310.825 95.2719C305.334 94.5529 307.356 92.2931 308.536 91.307L337.859 76.6901C344.295 75.1185 344.479 82.9662 344.479 82.9662V89.8073ZM382.455 86.5408C382.085 86.6744 352.126 95.3439 352.126 95.3439C348.985 96.5662 347.528 94.707 346.861 92.6937C346.597 91.8567 346.469 90.9828 346.481 90.1052V79.9668C346.994 77.6967 348.862 74.3891 355.195 75.745L380.956 82.997C387.597 85.0103 382.496 86.5408 382.496 86.5408H382.455ZM391.692 75.7964C391.22 81.8877 386.683 82.1342 384.118 81.7233L356.098 73.8345C350.894 71.9444 352.844 69.5408 354.209 68.4314L385.298 52.9311C391.743 51.3287 391.692 59.2175 391.692 59.2175V75.7964ZM430.129 77.5837L402.767 82.0931C397.635 82.8532 395.325 80.1722 394.32 77.9227C393.93 77.0146 393.734 76.0349 393.745 75.0466V56.9988C394.207 55.1293 395.869 52.2532 401.319 54.6774L430.817 72.9305C436.216 76.0224 430.191 77.5837 430.191 77.5837H430.129ZM438.966 67.733C439.028 73.4031 436.031 73.3106 434.04 72.5094L401.945 52.6435C397.512 48.8429 401.063 45.4532 402.356 44.426L432.018 29.6345C438.843 27.6417 438.966 35.6333 438.966 35.6333V67.733ZM480.647 72.7662L478.471 72.8895H478.317C469.128 73.4441 460.167 74.1666 451.437 75.0568L451.827 74.9952L450.451 75.1595L449.517 75.252C443.297 75.5396 441.512 71.6876 441.019 69.2327V33.4453C441.419 31.7196 442.774 29.4701 446.695 33.1885L482.525 70.3626L482.617 70.4755C483.572 71.9136 482.104 72.5505 480.749 72.7662H480.647ZM485.902 10.919V67.7843C485.902 69.7257 484.875 69.5408 484.157 69.0991L447.136 30.6822C443.913 25.9674 447.639 22.3311 449.189 21.0882L479.98 5.75227C481.92 5.14623 486.466 4.35529 485.963 10.919H485.902ZM625.898 71.5849L619.308 68.2979L625.898 71.5849ZM487.955 68.5855V8.56677C488.375 6.51239 493.682 5.65983 493.682 5.65983L522.707 20.2254C522.707 20.2254 531.113 25.5257 525.55 31.9045L489.987 68.9142C488.837 69.7668 488.252 69.1607 488.016 68.5855H487.955ZM532.848 67.4248C532.848 67.4248 532.848 74.9849 524.934 75.3239C514.363 74.2145 503.449 73.3414 492.193 72.7046C490.438 72.4889 490.531 71.5336 490.746 70.9686L528.044 32.2743C532.663 28.7202 532.848 34.6369 532.848 34.6369V67.4248ZM534.9 70.1058V32.8085C535.362 30.6206 536.84 27.9601 541.479 29.5831L569.786 43.6967C570.127 43.8669 570.45 44.0699 570.751 44.3027C572.26 45.5046 576.181 49.3565 570.874 53.2907L541.469 71.4925C541.469 71.4925 536.05 75.4677 534.962 70.1058H534.9ZM580.06 74.6768C580.06 74.6768 579.095 83.1614 570.72 82.0725C561.873 80.3537 552.718 78.8472 543.255 77.5529C542.393 77.3064 538.872 76.1559 541.202 74.0194L572.557 54.6157C579.742 51.8012 580.029 58.7245 580.029 58.7245L580.06 74.6768ZM582.113 76.1457V57.8308C582.575 55.4067 584.094 51.6677 589.297 53.4345L618.344 67.8151C618.344 67.8151 624.943 71.7698 616.116 74.3378L591.853 81.1686L591.063 81.3946C588.959 81.9185 583.037 82.7094 582.226 76.1046L582.113 76.1457ZM627.355 89.0883C627.355 90.023 627.109 97.4701 621.556 95.313L622.829 95.7958C612.873 92.3719 602.336 89.2903 591.217 86.5511H591.309C591.309 86.5511 586.177 84.9898 592.223 83.1614L593.023 82.9354L618.846 75.6731C627.837 73.9474 627.334 81.8363 627.334 81.8363L627.355 89.0883ZM629.408 89.8381V82.6478C629.531 81.0659 630.434 74.8206 636.89 77.0804L636.51 76.8955L664.222 90.7317C664.94 91.2556 669.118 94.5324 661.964 95.313L660.558 95.426L641.293 96.9668C638.286 97.1312 630.065 96.8435 629.572 89.8381H629.408ZM673.48 119.514L672.258 118.774L673.49 119.503L673.48 119.514ZM674.598 113.7C674.424 115.59 673.572 118.569 669.467 117.059C660.194 111.577 650.554 106.745 640.616 102.596L640.862 102.688C640.862 102.688 636.028 99.9046 641.118 99.0623L664.294 97.2031C673.387 97.1106 674.496 103.366 674.629 104.589L674.598 113.7ZM676.651 113.443V104.393C676.815 102.062 677.759 98.333 682.265 99.7094L711.003 114.09C711.219 114.275 714.709 117.346 708.745 118.26L685.519 120.192C682.388 120.079 677.811 118.928 676.784 113.443H676.651ZM689.922 121.876L711.014 120.109C718.66 120.027 720.251 124.352 720.579 126.437V147.597L679.422 123.047L686.114 127.033C686.114 127.033 681.916 122.328 690.035 121.876H689.922ZM736.693 167.073V200.888C733.686 187.534 726.43 168.346 708.981 148.922C703.986 143.392 698.586 138.242 692.826 133.514L736.662 159.667L736.693 167.073ZM722.632 148.85V129.786C722.632 129.786 722.714 121.054 729.211 123.119L761.418 139.184C762.814 140.212 766.119 143.242 760.279 146.786L737.771 157.838L722.632 148.85ZM766.601 190.349H738.746V172.476C738.746 171.726 738.838 161.824 742.851 165.45L765.072 187.134C765.949 187.989 766.525 189.107 766.714 190.318L766.601 190.349ZM763.091 197.539L745.818 214.519C745.818 214.519 739.228 219.963 738.725 214.652V192.372H766.437C765.945 194.024 765.061 195.533 763.861 196.769L763.101 197.519L763.091 197.539ZM738.777 247.389V229.721C738.941 228.817 739.803 225.335 743.529 224.945H760.248C761.972 225.16 765.626 226.074 763.122 230.08L745.776 247.132L745.838 247.019C745.838 247.019 739.577 252.258 738.89 247.378L738.777 247.389ZM744.935 290.058H759.92C761.48 290.202 765.811 291.003 762.999 295.348L745.848 312.194V312.143C745.848 312.143 739.485 317.392 738.787 312.523V294.835C738.961 293.9 739.813 290.325 743.734 290.048H744.914L744.935 290.058ZM763.153 327.766L745.879 344.736L745.951 344.622C745.951 344.622 739.362 350.056 738.859 344.756V336.487V327.355C739.023 326.441 739.885 323 743.57 322.6H759.448C759.448 322.6 766.355 322.702 763.153 327.766ZM763.245 360.226L745.951 377.226C745.951 377.226 739.362 382.659 738.859 377.359V360.113C738.859 360.113 739.341 355.757 743.375 355.151H762.393C764.005 355.768 765.39 357.144 763.235 360.287L763.245 360.226ZM738.89 279.94V262.232C739.054 261.348 739.916 257.999 743.406 257.486H759.663C760.751 257.548 766.088 258.082 763.112 262.735L745.93 279.622C745.551 279.961 739.557 284.686 738.89 279.981V279.94ZM738.89 410.394V392.716C738.89 392.716 739.403 388.062 743.826 387.713H759.704C759.704 387.713 766.889 387.713 762.701 393.394L744.227 411.565C743.57 412.15 739.392 416.023 738.859 410.435L738.89 410.394ZM769.968 418.169H746.423C746.423 418.169 741.538 417.646 744.278 414.328L764.138 394.811C769.403 390.23 769.968 396.27 769.968 396.27V418.169ZM769.968 385.618H744.411C743.303 385.566 741.024 385.135 743.878 382.166L764.477 361.931C769.434 357.391 769.968 363.297 769.968 363.297V385.618ZM769.968 353.056H744.945C744.945 353.056 740.593 353.354 743.549 349.974L764.436 329.43C768.931 325.743 769.824 329.923 769.968 330.858V353.056ZM769.937 320.576H744.914C744.914 320.576 740.378 320.884 743.703 317.299L764.805 296.55C768.911 293.273 769.793 297.413 769.937 298.337V320.576ZM769.937 288.024H744.278C743.139 287.952 741.045 287.47 743.826 284.583L764.662 264.101C768.89 260.629 769.793 264.851 769.916 265.786L769.937 288.024ZM769.937 255.462H744.914C744.914 255.462 740.532 255.76 743.539 252.381L764.59 231.703C768.469 228.396 769.629 231.416 769.937 232.803V255.462ZM769.937 222.911H744.914C744.914 222.911 740.347 223.229 743.724 219.613L764.128 199.552C769.013 196.543 769.937 202.11 769.937 202.11V222.911ZM769.937 184.504C769.516 187.647 767.751 186.671 766.725 185.819L744.74 164.351C740.881 159.903 744.298 157.16 744.74 156.77L763.06 147.772C765.247 146.868 769.219 145.892 769.886 150.042L769.937 184.504Z" fill="#DDDDDD"/>
<path fill-rule="evenodd" clip-rule="evenodd" d="M722.034 165.403L723.269 167.974L319.714 362.191V419.528H316.864V360.397L722.034 165.403Z" fill="#DDDDDD"/>
<path fill-rule="evenodd" clip-rule="evenodd" d="M386.786 138.537L574.558 238.07V418.791H571.708V239.787L386.789 141.766L236.465 221.759L235.127 219.241L386.786 138.537Z" fill="#DDDDDD"/>
<path fill-rule="evenodd" clip-rule="evenodd" d="M290.28 288.166L374.954 333.162V418.053H372.104V334.877L290.319 291.416L237.23 321.258L235.834 318.771L290.28 288.166Z" fill="#DDDDDD"/>
<path fill-rule="evenodd" clip-rule="evenodd" d="M266.669 333.121L318.94 360.026L317.637 362.562L266.792 336.392L235.068 355.875L233.577 353.444L266.669 333.121Z" fill="#DDDDDD"/>
</svg>
