<svg width="167" height="29" viewBox="0 0 167 29" fill="none" xmlns="http://www.w3.org/2000/svg">
<path d="M1.26 16H2.38V7.572L5.81 16H6.188L9.506 7.572V16H10.724V5.99H9.044L6.048 13.788L2.954 5.99H1.26V16ZM15.1122 15.202C14.0902 15.202 13.7262 14.726 13.7262 13.97C13.7262 12.892 14.8042 12.528 16.2742 12.528H17.2822V13.438C17.2822 14.572 16.3442 15.202 15.1122 15.202ZM15.0002 16.126C16.0782 16.126 16.7362 15.762 17.2822 15.076V16H18.4442V11.17C18.4442 9.126 17.1702 8.552 15.7702 8.552C14.3562 8.552 13.0262 9.168 12.8722 10.834H14.0342C14.1462 9.938 14.7062 9.518 15.7142 9.518C16.8342 9.518 17.2822 10.008 17.2822 11.17V11.702H16.2322C14.3562 11.702 12.5642 12.276 12.5642 13.97C12.5642 15.468 13.6422 16.126 15.0002 16.126ZM23.6108 15.16C22.3788 15.16 21.3848 14.278 21.3848 12.43V12.318C21.3848 10.54 22.2528 9.518 23.7088 9.518C25.1368 9.518 26.0328 10.4 26.0328 12.276V12.388C26.0328 14.264 24.9688 15.16 23.6108 15.16ZM23.4848 16.126C24.5488 16.126 25.5708 15.454 25.9908 14.74V16H27.1528V5.178H25.9908V9.854C25.5708 9.14 24.8148 8.552 23.5968 8.552C21.5808 8.552 20.1808 10.134 20.1808 12.374V12.486C20.1808 14.768 21.5668 16.126 23.4848 16.126ZM32.5001 16.126C34.1521 16.126 35.3701 15.356 35.6221 13.886H34.4601C34.3061 14.74 33.6481 15.16 32.5141 15.16C31.0161 15.16 30.2181 14.236 30.1621 12.57H35.6781V12.192C35.6781 9.574 34.0821 8.552 32.3881 8.552C30.3721 8.552 28.9581 10.092 28.9581 12.304V12.416C28.9581 14.67 30.4281 16.126 32.5001 16.126ZM30.2041 11.632C30.4001 10.33 31.1981 9.518 32.3881 9.518C33.5921 9.518 34.3761 10.12 34.4881 11.632H30.2041ZM44.8062 16.126C46.8222 16.126 48.1382 14.586 48.1382 12.346V12.234C48.1382 9.952 46.7242 8.552 44.8062 8.552C43.7422 8.552 42.7482 9.196 42.3282 9.91V5.178H41.1662V16H42.3282V14.796C42.7482 15.524 43.6162 16.126 44.8062 16.126ZM44.6942 15.16C43.2662 15.16 42.2862 14.278 42.2862 12.402V12.29C42.2862 10.414 43.3222 9.518 44.6802 9.518C45.9122 9.518 46.9342 10.442 46.9342 12.29V12.402C46.9342 14.18 46.1502 15.16 44.6942 15.16ZM50.4649 18.548H51.6409L55.6869 8.678H54.4969L52.4669 13.928L50.2269 8.678H48.9809L51.8509 15.244L50.4649 18.548Z" fill="#555555"/>
<path d="M109.014 0.253906H105.828V1.51331H109.014V0.253906Z" fill="#555555"/>
<path d="M143.578 0.173828H140.727V16.9974H143.578V0.173828Z" fill="#555555"/>
<path fill-rule="evenodd" clip-rule="evenodd" d="M77.4315 3.20137V0.173828H62V16.9997H64.8516V13.5159H77.4315V10.4883H64.8516V3.20137H77.4315Z" fill="#555555"/>
<path fill-rule="evenodd" clip-rule="evenodd" d="M134.006 0.173828H114.902V3.20137H123.028V16.9971H125.88V3.20137H134.006V0.173828Z" fill="#555555"/>
<path d="M148.485 14.039V14.0297C150.429 13.8145 152.558 13.3396 154.437 12.6149C155.763 12.103 157.035 11.4403 158.04 10.5997C159.041 9.76274 159.891 8.65002 160.109 7.23547C160.478 4.85511 159.643 2.95585 158.189 1.71252C156.802 0.52687 154.939 0 153.206 0C151.616 0 149.856 0.26046 148.488 1.3949C147.053 2.58495 146.354 4.4705 146.354 7.00113H149.205C149.205 5.02556 149.733 4.15004 150.269 3.70568C150.872 3.20571 151.825 2.95844 153.206 2.95844C154.443 2.95844 155.614 3.3446 156.375 3.99562C157.07 4.58922 157.497 5.45104 157.294 6.76679C157.227 7.20003 156.938 7.72173 156.251 8.29697C155.567 8.86832 154.602 9.39519 153.443 9.84214C151.124 10.7366 148.313 11.2047 146.209 11.2047V14.1631C146.208 14.1631 146.21 14.1631 146.209 14.1631V15.6124V16.9974H160.585V14.039H148.485Z" fill="#555555"/>
<path fill-rule="evenodd" clip-rule="evenodd" d="M82.848 0.173828H79.9961V16.9974H95.2915V13.9695H82.848V0.173828Z" fill="#555555"/>
<path d="M105.338 0.173828L97.2637 16.9974H102.425L111.833 11.8494L114.303 16.9974H117.504L109.43 0.173828H105.338ZM101.957 13.8862L107.38 2.58755H107.388L110.553 9.1826L101.957 13.8862Z" fill="#555555"/>
<path d="M163.878 4.54846C165.232 4.54846 166.02 3.52648 166.02 2.27423C166.02 1.02197 165.232 0 163.878 0C162.525 0 161.736 1.02171 161.736 2.27423C161.736 3.52648 162.525 4.54846 163.878 4.54846ZM163.878 3.93384C162.872 3.93384 162.315 3.16544 162.315 2.27423C162.315 1.38301 162.872 0.614614 163.878 0.614614C164.884 0.614614 165.441 1.38301 165.441 2.27423C165.441 3.16544 164.884 3.93384 163.878 3.93384ZM162.945 3.33458H163.495V2.73532H164.334V3.33458H164.884V2.65856C164.884 2.53574 164.819 2.46639 164.703 2.46639H164.269V2.31287C164.573 2.28217 164.884 2.20541 164.884 1.80573C164.884 1.27555 164.255 1.17576 163.842 1.17576H162.945V3.33458ZM163.495 2.15115V1.7594H163.842C164.146 1.7594 164.334 1.7594 164.334 1.95157C164.334 2.15141 164.146 2.15141 163.842 2.15141H163.495V2.15115Z" fill="#555555"/>
</svg>
